<?xml version="1.0" encoding="UTF-8"?>
<svg version="1.1" viewBox="0 0 82.118 14.186" xmlns="http://www.w3.org/2000/svg" fill="black">
  <g transform="translate(-24.919 -54.54)">
    <path
      d="m35.105 68.726q-0.127 0-0.1651-0.0508-0.0381-0.0381-0.0381-0.0889 0.2286-0.0381 0.4445-0.3429 0.2159-0.2921 0.2159-0.6858 0-0.6223-0.4064-1.2065-0.4064-0.5715-1.143-1.0541t-1.7272-0.8255q-0.9779-0.3556-2.1463-0.5207-0.4318 0.6096-0.9779 1.1176-0.5334 0.5207-1.1938 0.8255-0.6477 0.3175-1.4097 0.3175-0.8001 0-1.2192-0.3683t-0.4191-0.8509q0-0.4445 0.3556-0.889 0.3683-0.4572 1.1049-0.7493 0.7493-0.3048 1.8923-0.3048 0.8763 0 1.778 0.1524 0.3175-0.5588 0.5715-1.1176t0.4445-1.0541q-1.2573-0.0508-1.9812-0.381-0.7239-0.3429-1.0287-0.8509t-0.3048-1.0414q0-0.6731 0.4064-1.27 0.4064-0.6096 1.1049-0.9906t1.5621-0.381q0.1016 0 0.127 0.0762t0.0254 0.127q-0.4826 0-0.9398 0.2159-0.4445 0.2159-0.8001 0.5842-0.3556 0.3556-0.5715 0.8001-0.2032 0.4445-0.2032 0.9144 0 0.4572 0.2413 0.9017 0.2413 0.4318 0.8255 0.7239t1.6383 0.3175q0.1143-0.2921 0.1905-0.5334 0.0889-0.254 0.1524-0.4318 0.3048-0.9144 0.6477-1.8161 0.3556-0.9017 0.8001-1.6383 0.4572-0.7366 1.0795-1.1811t1.4859-0.4445q0.5588 0 0.8636 0.3175 0.3175 0.3175 0.3175 0.8763 0 0.5461-0.254 1.2065-0.254 0.6477-0.7112 1.2954t-1.0795 1.2065-1.3589 0.9271-1.5494 0.4572q-0.1905 0.4064-0.4826 1.0287-0.2921 0.6096-0.6985 1.2573 1.1049 0.254 2.0828 0.6858 0.9906 0.4318 1.7399 0.9779 0.762 0.5588 1.1938 1.1811 0.4318 0.635 0.4318 1.2573 0 0.5588-0.2794 0.9398t-0.635 0.381zm0.4191-13.348q-0.5461 0-1.0287 0.4826-0.4826 0.4699-0.9271 1.2573-0.4318 0.7747-0.8509 1.7272t-0.8382 1.8923q0.7493-0.1016 1.397-0.4572t1.1811-0.8636q0.5334-0.5207 0.9144-1.1049t0.5842-1.143q0.2032-0.5715 0.2032-1.016 0-0.3556-0.1524-0.5588-0.1524-0.2159-0.4826-0.2159zm-10.287 9.7917q0 0.3175 0.3429 0.5461 0.3429 0.2413 0.9779 0.2413 0.9398 0 1.7018-0.6096 0.762-0.5969 1.3589-1.4605-0.6731-0.0635-1.3462-0.0635-1.0414 0-1.7145 0.2159-0.6731 0.2032-1.0033 0.5207-0.3175 0.3048-0.3175 0.6096zm10.477-0.3429q-0.4699 0-0.8509-0.3048-0.3683-0.3048-0.3683-0.9271 0-0.5715 0.2794-1.2192 0.2794-0.6604 0.7112-1.1557 0.3683-0.4318 0.8255-0.7112t0.8636-0.2794q0.2794 0 0.4826 0.1524 0.2159 0.1651 0.2159 0.4699 0 0.3175-0.2413 0.6985t-0.6858 0.7112q-0.1905 0.1397-0.4826 0.2667t-0.5842 0.2159q-0.2921 0.0762-0.4826 0.0762-0.0635 0.1524-0.127 0.4064-0.0508 0.254-0.0508 0.5207 0 0.3175 0.127 0.5715t0.4699 0.254q0.4445 0 0.9144-0.3048t0.889-0.7493q0.4318-0.4572 0.7112-0.9017 0.1524-0.3302 0.3175-0.6477 0.1651-0.3302 0.3302-0.6477 0.254-0.4572 0.4318-0.635 0.1778-0.1905 0.4699-0.1905 0.1016 0 0.2159 0.0381 0.1143 0.0254 0.2286 0.0254 0.0762 0 0.1143-0.0127-0.1778 0.1016-0.4699 0.508-0.2794 0.3937-0.5715 0.9144t-0.5207 0.9779q0.2413-0.2921 0.508-0.5842t0.5842-0.5588q0.3048-0.2667 0.7239-0.5461 0.4318-0.2921 0.8382-0.4826t0.6477-0.1905q0.0889 0 0.127 0.0127 0 0-0.1397 0.254-0.1397 0.2413-0.3556 0.6477-0.2032 0.3937-0.4191 0.8509-0.2159 0.4445-0.3937 0.8636-0.1651 0.4064-0.2159 0.6858-0.0381 0.1651-0.0381 0.3048 0 0.2032 0.0762 0.2667t0.1651 0.0635q0.2413 0 0.4953-0.2159t0.4826-0.5588q0.2413-0.3429 0.4445-0.7239t0.3429-0.7112q0.1524 0 0.1524 0.1143-0.1397 0.3429-0.3556 0.762-0.2032 0.4064-0.4699 0.7874-0.254 0.3683-0.5715 0.6096t-0.6858 0.2413q-0.254 0-0.5334-0.1778-0.2667-0.1778-0.2667-0.6604 0-0.1397 0.0254-0.2921 0.0254-0.1651 0.0889-0.3556 0.1016-0.254 0.2413-0.5461t0.4572-0.8001q0.0889-0.1397 0.1016-0.2159 0.0254-0.0762 0.0254-0.127 0-0.1524-0.1397-0.1524-0.1143 0-0.3429 0.127-0.2159 0.127-0.5461 0.4445-0.3175 0.3048-0.762 0.8636-0.4318 0.5588-1.0033 1.651-0.0889 0.1651-0.2032 0.1778-0.1016 0.0127-0.2921 0.0254-0.127 0.0127-0.2413 0.0254t-0.1905 0.0635q0.1524-0.3048 0.2921-0.6096 0.1524-0.3048 0.2921-0.5969-0.4318 0.4699-0.9779 0.8128-0.5461 0.3302-1.1303 0.3302zm-0.2286-2.2352q0.1778 0 0.5969-0.127 0.4191-0.1397 0.762-0.4318 0.3302-0.2921 0.508-0.635 0.1778-0.3556 0.1778-0.5969 0-0.2794-0.2032-0.2794-0.1524 0-0.4191 0.2032t-0.6604 0.6858q-0.2413 0.3048-0.4572 0.6604t-0.3048 0.5207zm9.8933-4.5212q-0.1651 0.2413-0.3683 0.6096t-0.381 0.7112q-0.1651 0.3429-0.254 0.5207h1.1684q0 0.0508-0.0508 0.1651-0.0381 0.1143-0.1651 0.1651h-1.1049q-0.1524 0.3429-0.3556 0.8255-0.1905 0.4826-0.381 1.0033-0.1778 0.5207-0.3048 0.9779-0.1143 0.4445-0.1143 0.7239 0 0.381 0.1016 0.5715 0.1016 0.1778 0.3683 0.1778 0.3429 0 0.6604-0.3302 0.3175-0.3429 0.5969-0.8509 0.2921-0.508 0.508-1.016 0.1524 0 0.1524 0.1143-0.1397 0.3429-0.3429 0.7493t-0.4699 0.7874q-0.254 0.3683-0.5842 0.6096-0.3175 0.2286-0.7112 0.2286-0.5334 0-0.7239-0.2921-0.1905-0.3048-0.1905-0.7747 0-0.3429 0.127-0.8255 0.127-0.4953 0.3048-1.016 0.1905-0.5207 0.3683-0.9652 0.1778-0.4572 0.2794-0.6985h-0.8128q0-0.1016 0.0889-0.2159t0.1905-0.1143h0.6731q0.1016-0.2032 0.2286-0.508 0.1397-0.3048 0.3683-0.6731 0.1905-0.3048 0.4826-0.4826 0.3048-0.1778 0.6477-0.1778zm0.8382 6.7564q-0.4699 0-0.8509-0.3048-0.3683-0.3048-0.3683-0.9271 0-0.5207 0.2286-1.1049 0.2413-0.5842 0.6223-1.0922 0.3937-0.5207 0.8636-0.8382 0.4826-0.3302 0.9652-0.3302 0.2413 0 0.4699 0.1397t0.2286 0.4826q0 0.3175-0.2413 0.6985t-0.6858 0.7112q-0.1905 0.1397-0.4826 0.2667t-0.5842 0.2159q-0.2921 0.0762-0.4826 0.0762-0.0635 0.1524-0.127 0.4064-0.0508 0.254-0.0508 0.5207 0 0.3175 0.127 0.5715t0.4699 0.254q0.4191 0 0.7747-0.2413 0.3683-0.2413 0.6477-0.6096 0.2921-0.3683 0.4953-0.7493t0.3175-0.6477q0.1524 0 0.1524 0.1143-0.1651 0.3556-0.381 0.7747-0.2032 0.4191-0.4953 0.7874-0.2794 0.3556-0.6858 0.5969-0.3937 0.2286-0.9271 0.2286zm-0.2286-2.2352q0.1778 0 0.5969-0.127 0.4191-0.1397 0.762-0.4318 0.3302-0.2921 0.508-0.635 0.1778-0.3556 0.1778-0.5969 0-0.2794-0.2032-0.2794-0.1524 0-0.4191 0.2032t-0.6604 0.6858q-0.2413 0.3048-0.4572 0.6604t-0.3048 0.5207zm8.6995 3.5433q-1.1557 0-2.0574-0.4699-0.889-0.4572-1.397-1.3589-0.4953-0.9144-0.4953-2.2352 0-0.7874 0.2032-1.5748t0.5461-1.5113q0.3556-0.7239 0.7874-1.3335-0.1905-0.762-0.1905-1.651 0-0.6731 0.1524-1.2827 0.0508-0.1778 0.1778-0.1778 0.1016 0 0.0889 0.127-0.0381 0.254-0.0635 0.5461-0.0254 0.2794-0.0254 0.6731 0 0.7366 0.1397 1.397 0.127-0.1651 0.254-0.3048 0.5207-0.5715 1.2319-1.0668 0.7112-0.508 1.5748-0.8128 0.8763-0.3048 1.8542-0.3048 0.9144 0 1.6764 0.3429 0.762 0.3302 1.2192 0.9652 0.4699 0.6223 0.4699 1.5113 0 0.5588-0.3048 1.143-0.2921 0.5842-0.8509 1.0795-0.5461 0.4826-1.3335 0.7874-0.7747 0.3048-1.7399 0.3048-1.27 0-2.3241-0.5588-1.0541-0.5588-1.6383-1.7018-0.508 0.9017-0.7493 1.8288t-0.2413 1.7653q0 1.2192 0.4064 1.9812t1.1176 1.1176q0.7239 0.3683 1.651 0.3683 1.651 0 2.8956-0.8382 1.2573-0.8255 2.0701-2.5654 0.1524 0 0.1524 0.1143-0.7874 1.8796-2.159 2.7813-1.3589 0.9144-3.0988 0.9144zm-1.4986-8.3185q-0.1651 0.2286-0.3175 0.4699 0.4445 1.0414 1.3589 1.6764 0.9144 0.635 2.2987 0.635 0.8763 0 1.5621-0.2667 0.6985-0.2667 1.1684-0.7112 0.4826-0.4445 0.7366-0.9779 0.254-0.5461 0.254-1.0922 0-0.6731-0.3683-1.1811-0.3556-0.508-0.9779-0.7874-0.6223-0.2921-1.4097-0.2921t-1.5875 0.3302q-0.7874 0.3302-1.4986 0.9017-0.6985 0.5715-1.2192 1.2954zm9.3599 6.9977q-0.2921 0-0.5207-0.1651-0.2159-0.1651-0.2159-0.6731 0-0.2159 0.0254-0.4064 0.0381-0.1905 0.0889-0.4064-0.1143 0.1905-0.3175 0.4699t-0.4572 0.5461q-0.2413 0.2667-0.508 0.4445-0.254 0.1778-0.4826 0.1778-0.3302 0-0.5334-0.2921-0.2032-0.3048-0.2032-0.7874 0-0.5207 0.2413-1.1176t0.6604-1.143 0.9652-0.889 1.143-0.3429q0.2921 0 0.5588 0.1016 0.2667 0.0889 0.4699 0.3048 0.0889 0.0889 0.0889 0.2032 0 0.0762-0.0635 0.127t-0.1651 0.0254q-0.1397-0.4445-0.5969-0.4445-0.2159 0-0.4953 0.1397-0.3429 0.1778-0.7366 0.5715-0.381 0.381-0.7239 0.8763-0.3302 0.4826-0.5461 0.9779t-0.2159 0.9017q0 0.4191 0.3175 0.4191 0.2794 0 0.5715-0.2667 0.3048-0.2667 0.5715-0.6604 0.2794-0.4064 0.508-0.8001t0.3556-0.635q0.1905-0.3429 0.3556-0.5715t0.4699-0.2286q0.1397 0 0.2794 0.0381t0.2921 0.0127q-0.381 0.381-0.6731 0.9017-0.2794 0.5207-0.4318 1.0287-0.1524 0.4953-0.1524 0.8382 0 0.381 0.254 0.381 0.2032 0 0.4318-0.2286 0.2413-0.2286 0.4572-0.5715 0.2286-0.3556 0.4191-0.7112 0.1905-0.3683 0.3048-0.635 0.0635 0 0.1016 0.0127 0.0508 0.0127 0.0508 0.1016-0.0127 0.0508-0.0508 0.1143-0.0254 0.0508-0.0889 0.1905-0.1016 0.2032-0.2794 0.5461t-0.4191 0.6985q-0.2413 0.3429-0.5207 0.5842t-0.5842 0.2413zm4.4196-6.7437q-0.1651 0.2413-0.3683 0.6096t-0.381 0.7112q-0.1651 0.3429-0.254 0.5207h1.1684q0 0.0508-0.0508 0.1651-0.0381 0.1143-0.1651 0.1651h-1.1049q-0.1524 0.3429-0.3556 0.8255-0.1905 0.4826-0.381 1.0033-0.1778 0.5207-0.3048 0.9779-0.1143 0.4445-0.1143 0.7239 0 0.381 0.1016 0.5715 0.1016 0.1778 0.3683 0.1778 0.3429 0 0.6604-0.3302 0.3175-0.3429 0.5969-0.8509 0.2921-0.508 0.508-1.016 0.1524 0 0.1524 0.1143-0.1397 0.3429-0.3429 0.7493t-0.4699 0.7874q-0.254 0.3683-0.5842 0.6096-0.3175 0.2286-0.7112 0.2286-0.5334 0-0.7239-0.2921-0.1905-0.3048-0.1905-0.7747 0-0.3429 0.127-0.8255 0.127-0.4953 0.3048-1.016 0.1905-0.5207 0.3683-0.9652 0.1778-0.4572 0.2794-0.6985h-0.8128q0-0.1016 0.0889-0.2159t0.1905-0.1143h0.6731q0.1016-0.2032 0.2286-0.508 0.1397-0.3048 0.3683-0.6731 0.1905-0.3048 0.4826-0.4826 0.3048-0.1778 0.6477-0.1778zm2.6797 6.7437q-0.2921 0-0.5207-0.1651-0.2159-0.1651-0.2159-0.6731 0-0.2159 0.0254-0.4064 0.0381-0.1905 0.0889-0.4064-0.1143 0.1905-0.3175 0.4699t-0.4572 0.5461q-0.2413 0.2667-0.508 0.4445-0.254 0.1778-0.4826 0.1778-0.3302 0-0.5334-0.2921-0.2032-0.3048-0.2032-0.7874 0-0.5207 0.2413-1.1176t0.6604-1.143 0.9652-0.889 1.143-0.3429q0.2921 0 0.5588 0.1016 0.2667 0.0889 0.4699 0.3048 0.0889 0.0889 0.0889 0.2032 0 0.0762-0.0635 0.127t-0.1651 0.0254q-0.1397-0.4445-0.5969-0.4445-0.2159 0-0.4953 0.1397-0.3429 0.1778-0.7366 0.5715-0.381 0.381-0.7239 0.8763-0.3302 0.4826-0.5461 0.9779t-0.2159 0.9017q0 0.4191 0.3175 0.4191 0.2794 0 0.5715-0.2667 0.3048-0.2667 0.5715-0.6604 0.2794-0.4064 0.508-0.8001t0.3556-0.635q0.1905-0.3429 0.3556-0.5715t0.4699-0.2286q0.1397 0 0.2794 0.0381t0.2921 0.0127q-0.381 0.381-0.6731 0.9017-0.2794 0.5207-0.4318 1.0287-0.1524 0.4953-0.1524 0.8382 0 0.381 0.254 0.381 0.2032 0 0.4318-0.2286 0.2413-0.2286 0.4572-0.5715 0.2286-0.3556 0.4191-0.7112 0.1905-0.3683 0.3048-0.635 0.0635 0 0.1016 0.0127 0.0508 0.0127 0.0508 0.1016-0.0127 0.0508-0.0508 0.1143-0.0254 0.0508-0.0889 0.1905-0.1016 0.2032-0.2794 0.5461t-0.4191 0.6985q-0.2413 0.3429-0.5207 0.5842t-0.5842 0.2413zm0.5588 0.0254q0.4699-0.9017 0.889-1.8034 0.4191-0.9144 0.8509-1.7272 0.254-0.4572 0.4191-0.635 0.1778-0.1905 0.4699-0.1905 0.1016 0 0.2159 0.0381 0.1143 0.0254 0.2286 0.0254 0.0762 0 0.1143-0.0127-0.1778 0.1016-0.4572 0.508-0.2794 0.3937-0.5715 0.9144t-0.5207 0.9779q0.2413-0.2921 0.4953-0.5842 0.2667-0.2921 0.5842-0.5588 0.2794-0.2413 0.5842-0.5207 0.3175-0.2921 0.6223-0.4953t0.5334-0.2032q0.0889 0 0.1143 0.0127 0.2413 0.1016 0.2413 0.3302 0 0.0762-0.0635 0.2286-0.1651 0.4318-0.4318 0.889-0.254 0.4445-0.4826 0.9017 0.1905-0.2286 0.4699-0.5588 0.2921-0.3302 0.5842-0.5842 0.2794-0.254 0.7112-0.5334t0.8509-0.4826 0.6731-0.2032q0.0889 0 0.127 0.0127 0 0-0.1397 0.254-0.1397 0.2413-0.3556 0.6477-0.2032 0.3937-0.4191 0.8509-0.2159 0.4445-0.3937 0.8636-0.1651 0.4064-0.2159 0.6858-0.0381 0.1651-0.0381 0.3048 0 0.2032 0.0762 0.2667t0.1651 0.0635q0.254 0 0.4953-0.2159 0.254-0.2159 0.4953-0.5461 0.2413-0.3429 0.4318-0.7239 0.2032-0.381 0.3429-0.7112 0.1524 0 0.1524 0.1143-0.1397 0.3429-0.3556 0.762-0.2032 0.4064-0.4699 0.7747t-0.5842 0.6096-0.6858 0.2413q-0.2667 0-0.508-0.1778-0.2286-0.1778-0.2286-0.6604 0-0.5207 0.2413-1.0414 0.254-0.5207 0.5207-0.9525 0.127-0.2159 0.127-0.3429 0-0.1524-0.1524-0.1524-0.127 0-0.3556 0.127-0.2159 0.127-0.5461 0.4445-0.2032 0.1905-0.4826 0.5334-0.2667 0.3302-0.5461 0.7239t-0.4826 0.7747-0.2667 0.6731q-0.1905 0-0.3048-0.1524-0.1143-0.1651-0.1143-0.381 0-0.0381 0-0.0762t0.0127-0.0889q0.0635-0.3937 0.2032-0.6604 0.1397-0.2794 0.3175-0.6477 0.0889-0.1651 0.2032-0.381 0.1143-0.2286 0.2032-0.4318 0.0889-0.2159 0.0889-0.3556 0-0.127-0.1016-0.127-0.1143 0-0.3048 0.1143-0.1778 0.1143-0.3429 0.2667-0.1651 0.1397-0.254 0.2159-0.3175 0.3048-0.7747 0.8763-0.4445 0.5715-0.9779 1.6256-0.0762 0.1397-0.1778 0.1778-0.1016 0.0254-0.3175 0.0254-0.1397 0-0.2286 0-0.1016 0.0127-0.2032 0.0635zm10.452-0.0254q-0.2921 0-0.5207-0.1651-0.2159-0.1651-0.2159-0.6731 0-0.2159 0.0254-0.4064 0.0381-0.1905 0.0889-0.4064-0.1143 0.1905-0.3175 0.4699t-0.4572 0.5461q-0.2413 0.2667-0.508 0.4445-0.254 0.1778-0.4826 0.1778-0.3302 0-0.5334-0.2921-0.2032-0.3048-0.2032-0.7874 0-0.5207 0.2413-1.1176t0.6604-1.143 0.9652-0.889 1.143-0.3429q0.2921 0 0.5588 0.1016 0.2667 0.0889 0.4699 0.3048 0.0889 0.0889 0.0889 0.2032 0 0.0762-0.0635 0.127t-0.1651 0.0254q-0.1397-0.4445-0.5969-0.4445-0.2159 0-0.4953 0.1397-0.3429 0.1778-0.7366 0.5715-0.381 0.381-0.7239 0.8763-0.3302 0.4826-0.5461 0.9779t-0.2159 0.9017q0 0.4191 0.3175 0.4191 0.2794 0 0.5715-0.2667 0.3048-0.2667 0.5715-0.6604 0.2794-0.4064 0.508-0.8001t0.3556-0.635q0.1905-0.3429 0.3556-0.5715t0.4699-0.2286q0.1397 0 0.2794 0.0381t0.2921 0.0127q-0.381 0.381-0.6731 0.9017-0.2794 0.5207-0.4318 1.0287-0.1524 0.4953-0.1524 0.8382 0 0.381 0.254 0.381 0.2032 0 0.4318-0.2286 0.2413-0.2286 0.4572-0.5715 0.2286-0.3556 0.4191-0.7112 0.1905-0.3683 0.3048-0.635 0.0635 0 0.1016 0.0127 0.0508 0.0127 0.0508 0.1016-0.0127 0.0508-0.0508 0.1143-0.0254 0.0508-0.0889 0.1905-0.1016 0.2032-0.2794 0.5461t-0.4191 0.6985q-0.2413 0.3429-0.5207 0.5842t-0.5842 0.2413zm1.8034-2.5273q0.1016-0.2159 0.2667-0.6858 0.1651-0.4826 0.3429-1.0668t0.2667-1.1049q0.0381-0.2032 0.1397-0.2921 0.1016-0.1016 0.2159-0.1016 0.1651 0 0.3048 0.1651 0.1397 0.1524 0.1397 0.4445 0 0.3556-0.2159 0.6096-0.2032 0.254-0.508 0.4826 0.127 0.0127 0.2667 0.0254 0.1397 0 0.3048 0 0.5969 0 1.1811-0.0762 0.0254 0.0762 0.0254 0.1143 0 0.1651-0.1016 0.4191-0.0889 0.254-0.1905 0.4572-0.0508 0.1143-0.2032 0.4191-0.1524 0.2921-0.3302 0.6731-0.1778 0.3683-0.3048 0.7366-0.1143 0.3556-0.1143 0.6096 0 0.3302 0.254 0.3302 0.2413 0 0.6731-0.5588 0.4318-0.5715 0.8636-1.5621 0.1524 0 0.1524 0.1143-0.1397 0.3429-0.3556 0.7493-0.2032 0.4064-0.4572 0.7747-0.254 0.3556-0.5461 0.5969-0.2921 0.2286-0.6096 0.2286-0.2413 0-0.4826-0.1905-0.2413-0.2032-0.2413-0.6477 0-0.3937 0.1524-0.762 0.1524-0.381 0.3429-0.7112t0.3429-0.5842 0.1524-0.4064q0-0.2286-0.2921-0.3302-0.2794-0.1016-0.7366-0.1143-0.2286 0.5842-0.3429 0.8636t-0.2159 0.5334q-0.2032 0-0.1397-0.1524zm4.2291 6.1595q-0.0508-0.1143-0.1651-0.2032t-0.1905-0.1778q-0.1778-0.1905-0.1778-0.4318 0-0.1524 0.0635-0.3556 0.0762-0.1905 0.1905-0.4318 0.4064-0.9144 0.6731-1.5113 0.2794-0.5842 0.4826-0.9906 0.2032-0.4191 0.381-0.7747t0.381-0.8001q-0.0254 0.0508-0.1524 0.2413-0.1143 0.1778-0.2794 0.4064-0.1524 0.2286-0.2921 0.4191-0.127 0.1778-0.1651 0.2286-0.2286 0.2667-0.5334 0.4826-0.2921 0.2159-0.6223 0.2159-0.1143 0-0.254-0.0381-0.3556-0.1524-0.5207-0.4318-0.1524-0.2794-0.1524-0.635 0-0.5715 0.3302-1.2319t0.7874-1.2065q0.3683-0.4445 0.8636-0.7112t1.0033-0.2667q0.2794 0 0.5588 0.1016 0.2794 0.0889 0.5207 0.2921 0.1143 0.0889 0.1524 0.1778 0.0508 0.0762 0.0508 0.1524 0 0.1905-0.1524 0.1905-0.127 0-0.1778-0.1651-0.1778-0.4699-0.5715-0.4699-0.3048 0-0.6731 0.254-0.3556 0.2413-0.7239 0.635-0.3556 0.3937-0.6604 0.8509t-0.4953 0.889q-0.1778 0.4318-0.1778 0.7493 0 0.3556 0.254 0.4699 0.0381 0.0127 0.0762 0.0254 0.0381 0 0.0635 0 0.2667 0 0.5715-0.2794 0.3175-0.2921 0.5969-0.6858 0.2921-0.4064 0.508-0.762 0.2286-0.3683 0.3175-0.5334 0.254-0.4191 0.3937-0.5334 0.1524-0.1143 0.3937-0.0889 0.0635 0.0127 0.2286 0.0381 0.1778 0.0254 0.3175 0.0127-0.2413 0.3683-0.5461 0.9398-0.2921 0.5588-0.6096 1.2446t-0.6223 1.3843q0.4826-0.1524 0.8636-0.508 0.3937-0.3556 0.6858-0.8001t0.4826-0.8509q0.2032-0.4191 0.3048-0.6477 0.0127-0.0381 0.1143-0.2413t0.2413-0.4826 0.2667-0.5334q0.1397-0.2667 0.2159-0.4064 0.1524-0.2794 0.4826-0.2794h0.7874q-0.2159 0.1651-0.3937 0.3683-0.1651 0.1905-0.4191 0.7112 0 0-0.0889 0.1778t-0.2286 0.4572q-0.127 0.2667-0.2667 0.5461-0.127 0.2794-0.2159 0.4699-0.1651 0.3556-0.2159 0.5715-0.0508 0.2032-0.0508 0.381 0 0.4191 0.2794 0.4191 0.3048 0 0.7366-0.4953 0.3556-0.4191 0.6985-1.0033t0.6477-1.2065q0.3175-0.6223 0.5588-1.1176 0.1397-0.2794 0.4953-0.2794h0.6985q-0.2794 0.2286-0.5715 0.6858-0.2794 0.4572-0.6223 1.1684-0.0889 0.1905-0.2286 0.4826t-0.254 0.6223q-0.1016 0.3302-0.1016 0.6604 0 0.4445 0.3175 0.4445 0.4318 0 0.8382-0.5969t0.8001-1.524q0.1016 0 0.1143 0.0127 0.0254 0.0127 0.0381 0.1016-0.1397 0.3429-0.3429 0.7493-0.1905 0.3937-0.4445 0.762-0.2413 0.3683-0.5461 0.5969-0.2921 0.2286-0.6477 0.2286-0.3175 0-0.5207-0.2286-0.2032-0.2413-0.2032-0.6731 0-0.3429 0.127-0.7366-0.2159 0.381-0.4953 0.762t-0.5969 0.635q-0.3175 0.2413-0.635 0.2413-0.1397 0-0.3429-0.0635-0.1905-0.0635-0.3429-0.2286-0.1397-0.1778-0.1397-0.5207 0-0.1905 0.0889-0.4445-0.2159 0.3937-0.5207 0.7874-0.2921 0.381-0.6858 0.6731-0.381 0.3048-0.8636 0.4064-0.3048 0.6858-0.5588 1.3081-0.2413 0.635-0.4064 1.0922-0.1524 0.4699-0.1778 0.6604zm9.017-3.6195q-0.4699 0-0.8509-0.3048-0.3683-0.3048-0.3683-0.9271 0-0.5207 0.2286-1.1049 0.2413-0.5842 0.6223-1.0922 0.3937-0.5207 0.8636-0.8382 0.4826-0.3302 0.9652-0.3302 0.2413 0 0.4699 0.1397t0.2286 0.4826q0 0.3175-0.2413 0.6985t-0.6858 0.7112q-0.1905 0.1397-0.4826 0.2667t-0.5842 0.2159q-0.2921 0.0762-0.4826 0.0762-0.0635 0.1524-0.127 0.4064-0.0508 0.254-0.0508 0.5207 0 0.3175 0.127 0.5715t0.4699 0.254q0.4191 0 0.7747-0.2413 0.3683-0.2413 0.6477-0.6096 0.2921-0.3683 0.4953-0.7493t0.3175-0.6477q0.1524 0 0.1524 0.1143-0.1651 0.3556-0.381 0.7747-0.2032 0.4191-0.4953 0.7874-0.2794 0.3556-0.6858 0.5969-0.3937 0.2286-0.9271 0.2286zm-0.2286-2.2352q0.1778 0 0.5969-0.127 0.4191-0.1397 0.762-0.4318 0.3302-0.2921 0.508-0.635 0.1778-0.3556 0.1778-0.5969 0-0.2794-0.2032-0.2794-0.1524 0-0.4191 0.2032t-0.6604 0.6858q-0.2413 0.3048-0.4572 0.6604t-0.3048 0.5207zm1.3462 2.286q0.4572-0.9271 0.8763-1.8288 0.4191-0.9144 0.8636-1.7399 0.254-0.4572 0.4318-0.635 0.1778-0.1905 0.4699-0.1905 0.1016 0 0.2159 0.0381 0.1143 0.0254 0.2286 0.0254 0.0762 0 0.1143-0.0127-0.1778 0.1016-0.4699 0.508-0.2794 0.3937-0.5715 0.9144t-0.5207 0.9779q0.2413-0.2921 0.508-0.5842t0.5842-0.5588q0.3048-0.2667 0.7239-0.5461 0.4318-0.2921 0.8382-0.4826t0.6477-0.1905q0.0889 0 0.127 0.0127 0 0-0.1397 0.254-0.1397 0.2413-0.3556 0.6477-0.2032 0.3937-0.4191 0.8509-0.2159 0.4445-0.3937 0.8636-0.1651 0.4064-0.2159 0.6858-0.0381 0.1651-0.0381 0.3048 0 0.2032 0.0762 0.2667t0.1651 0.0635q0.2413 0 0.4953-0.2159t0.4826-0.5461q0.2413-0.3429 0.4445-0.7239t0.3429-0.7112q0.1524 0 0.1524 0.1143-0.1397 0.3429-0.3556 0.762-0.2032 0.4064-0.4699 0.7747-0.254 0.3683-0.5715 0.6096t-0.6858 0.2413q-0.254 0-0.5334-0.1778-0.2667-0.1778-0.2667-0.6604 0-0.1397 0.0254-0.2921 0.0254-0.1651 0.0889-0.3556 0.1016-0.254 0.2413-0.5461 0.1397-0.2921 0.4572-0.8001 0.0889-0.1397 0.1016-0.2159 0.0254-0.0762 0.0254-0.127 0-0.1524-0.1397-0.1524-0.1143 0-0.3429 0.127-0.2159 0.127-0.5461 0.4445-0.3175 0.3048-0.762 0.8636-0.4318 0.5588-1.0033 1.651-0.0889 0.1651-0.2032 0.1778-0.1016 0.0127-0.2921 0.0254-0.127 0.0127-0.2413 0.0127-0.1143 0.0127-0.1905 0.0762zm4.4831-5.1562q-0.2159 0-0.4445-0.0889-0.2286-0.1016-0.4318-0.1905-0.2032-0.1016-0.3556-0.1016-0.1651 0-0.2794 0.0889t-0.1905 0.2159q-0.0127 0.0381-0.0762 0.0381-0.1524 0-0.127-0.0635 0.127-0.2413 0.3429-0.4953 0.2159-0.2667 0.5207-0.2667 0.2413 0 0.4445 0.1016 0.2032 0.0889 0.4064 0.1905 0.2032 0.0889 0.4191 0.0889 0.1778 0 0.2794-0.1016t0.1778-0.2667q0.0254-0.0381 0.0762-0.0381 0.1397 0 0.1143 0.0635-0.1143 0.2667-0.3429 0.5461-0.2159 0.2794-0.5334 0.2794zm3.7846 5.0927q-0.2921 0-0.5207-0.1651-0.2159-0.1651-0.2159-0.6731 0-0.2159 0.0254-0.4064 0.0381-0.1905 0.0889-0.4064-0.1143 0.1905-0.3175 0.4699t-0.4572 0.5461q-0.2413 0.2667-0.508 0.4445-0.254 0.1778-0.4826 0.1778-0.3302 0-0.5334-0.2921-0.2032-0.3048-0.2032-0.7874 0-0.5207 0.2413-1.1176t0.6604-1.143 0.9652-0.889 1.143-0.3429q0.2921 0 0.5588 0.1016 0.2667 0.0889 0.4699 0.3048 0.0889 0.0889 0.0889 0.2032 0 0.0762-0.0635 0.127t-0.1651 0.0254q-0.1397-0.4445-0.5969-0.4445-0.2159 0-0.4953 0.1397-0.3429 0.1778-0.7366 0.5715-0.381 0.381-0.7239 0.8763-0.3302 0.4826-0.5461 0.9779t-0.2159 0.9017q0 0.4191 0.3175 0.4191 0.2794 0 0.5715-0.2667 0.3048-0.2667 0.5715-0.6604 0.2794-0.4064 0.508-0.8001t0.3556-0.635q0.1905-0.3429 0.3556-0.5715t0.4699-0.2286q0.1397 0 0.2794 0.0381t0.2921 0.0127q-0.381 0.381-0.6731 0.9017-0.2794 0.5207-0.4318 1.0287-0.1524 0.4953-0.1524 0.8382 0 0.381 0.254 0.381 0.2032 0 0.4318-0.2286 0.2413-0.2286 0.4572-0.5715 0.2286-0.3556 0.4191-0.7112 0.1905-0.3683 0.3048-0.635 0.0635 0 0.1016 0.0127 0.0508 0.0127 0.0508 0.1016-0.0127 0.0508-0.0508 0.1143-0.0254 0.0508-0.0889 0.1905-0.1016 0.2032-0.2794 0.5461t-0.4191 0.6985q-0.2413 0.3429-0.5207 0.5842t-0.5842 0.2413z"
      stroke-dashoffset="300" stroke-linecap="round" stroke-miterlimit="1" stroke-width="1.1062"
      aria-label="Lente Catamarqueña" />
  </g>
</svg>